# xmcd
#
# Track frame offsets: 
#        150
#        17589
#        31155
#        51948
#        84003
#        94611
#        120960
#        140363
#        161443
#        173814
#        201756
#        225924
#        264233
#
# Disc length: 3872 seconds
#
# Revision: 0
# Processed by: cddbd v1.5.2PL0 Copyright (c) Steve Scherf et al.
# Submitted via: ExactAudioCopy v0.95b3
#
DISCID=8a0f1e0d
DTITLE=The Fantastic Boogaloo Kings - Live in Switzerland
DYEAR=2007
DGENRE=Blues
TTITLE0=01. Going Home
TTITLE1=02. Watch out
TTITLE2=03. Red Light Lady
TTITLE3=04. Traditional
TTITLE4=05. Rockin Robin - Little bitty pretty one
TTITLE5=06. Acidboogie
TTITLE6=07. Greasy Gravy
TTITLE7=08. Wino Ballad
TTITLE8=09. Aint That Lovin You
TTITLE9=10. My Buddy Buddy Friends
TTITLE10=11. Chicago Weather Woman
TTITLE11=12. Marschackerboogie
TTITLE12=13. Pill Poppin Son Of A Bitch
EXTD=
EXTT0=
EXTT1=
EXTT2=
EXTT3=
EXTT4=
EXTT5=
EXTT6=
EXTT7=
EXTT8=
EXTT9=
EXTT10=
EXTT11=
EXTT12=
PLAYORDER=
